<?xml version="1.0" encoding="utf-8"?>
<!-- Generator: Adobe Illustrator 25.0.1, SVG Export Plug-In . SVG Version: 6.00 Build 0)  -->
<svg version="1.0" id="Layer_1" xmlns="http://www.w3.org/2000/svg" xmlns:xlink="http://www.w3.org/1999/xlink" x="0px" y="0px"
	 viewBox="0 0 234 151" style="enable-background:new 0 0 234 151;" xml:space="preserve">
<style type="text/css">
	.st0{fill:url(#SVGID_1_);}
	.st1{fill:url(#SVGID_2_);}
	.st2{fill:#111111;}
	.st3{fill:none;}
</style>
<linearGradient id="SVGID_1_" gradientUnits="userSpaceOnUse" x1="-278.6527" y1="180.2377" x2="-278.3627" y2="180.2377" gradientTransform="matrix(129.03 0 0 54.12 35976.8281 -9665.6191)">
	<stop  offset="0" style="stop-color:#8930FD"/>
	<stop  offset="1" style="stop-color:#49CCF9"/>
</linearGradient>
<path class="st0" d="M22.8,86.4l6.8-5.2c3.6,4.7,7.4,6.8,11.6,6.8s7.9-2.1,11.3-6.8l6.8,5c-5,6.7-11.1,10.2-18.2,10.2
	S27.9,93,22.8,86.4z"/>
<linearGradient id="SVGID_2_" gradientUnits="userSpaceOnUse" x1="-278.5615" y1="179.7084" x2="-278.2815" y2="179.7084" gradientTransform="matrix(123.63 0 0 76.2 34462.2383 -13630.3389)">
	<stop  offset="0" style="stop-color:#FF02F0"/>
	<stop  offset="1" style="stop-color:#FFC800"/>
</linearGradient>
<path class="st1" d="M41.1,63.9l-12,10.3l-5.6-6.4l17.6-15.2l17.4,15.2L53,74.2L41.1,63.9z"/>
<path class="st2" d="M85.2,90.2c-3.8,0.1-7.5-1.3-10.3-4c-2.8-2.7-4.3-6.5-4.1-10.4c-0.2-7.8,5.9-14.4,13.8-14.6c0.2,0,0.5,0,0.7,0
	c4.6-0.1,9.1,1.9,12,5.6l-4.5,4.8c-2.2-2.3-4.5-3.5-7.1-3.5c-2-0.1-4,0.7-5.4,2.2c-1.5,1.5-2.2,3.5-2.2,5.6c0,2,0.7,4,2.2,5.5
	c1.4,1.4,3.4,2.2,5.4,2.2c2.8,0,5.5-1.4,7.2-3.6l4.7,4.5c-1.4,1.8-3.2,3.2-5.2,4.2C90.2,89.6,87.7,90.2,85.2,90.2L85.2,90.2z
	 M105.6,60.8v29h-6.7v-29H105.6z M111.9,66.9c-2.1,0-3.8-1.7-3.8-3.8c0-2.1,1.7-3.8,3.8-3.8c2.1,0,3.8,1.7,3.8,3.8
	c0.1,2.1-1.6,3.8-3.6,3.9C112,66.9,112,66.9,111.9,66.9z M115.3,68.8v21h-6.7v-21H115.3z M128.2,90.2c-3,0.1-5.9-1-8-3.1
	c-4.1-4.5-4.1-11.3,0-15.8c2.2-2.1,5.1-3.2,8.1-3.1c4.3-0.2,8.2,2.2,10,6.1l-5.4,2.8c-0.9-1.7-2.6-2.7-4.5-2.7
	c-1.3,0-2.5,0.5-3.5,1.4c-0.9,0.9-1.3,2.1-1.3,3.4c-0.1,2.6,1.9,4.7,4.5,4.8c0.1,0,0.2,0,0.2,0c1.9,0,3.6-1,4.5-2.7l5.3,3.2
	C136.2,88.1,132.3,90.3,128.2,90.2L128.2,90.2z M161.5,89.7h-8l-6.2-8.3l-1,0.9v7.4h-6.7v-29h6.7v14.1l6.3-6.1h8.2l-9,8.4
	L161.5,89.7z M161.9,78.8V61.7h7.1v17.1c0,3.2,1.8,4.7,4.4,4.7s4.4-1.6,4.4-4.7V61.7h7.2v17.2c0,8.3-5.7,11.4-11.6,11.4
	S162,87.1,161.9,78.8L161.9,78.8z M200.9,68.2c2.8-0.1,5.5,1.1,7.4,3.2c1.9,2.1,3,4.9,2.9,7.8c0.1,2.9-1,5.7-2.9,7.9
	c-1.8,2.1-4.5,3.3-7.3,3.2c-2.2,0.1-4.4-0.8-6-2.3v10.4h-6.7V68.8h6.7v1.9C196.6,69.1,198.7,68.2,200.9,68.2L200.9,68.2z
	 M204.4,79.3c0.1-2.6-1.9-4.8-4.5-4.9s-4.8,1.9-4.9,4.5c0,0.1,0,0.3,0,0.4c0,1.3,0.5,2.5,1.3,3.4c0.9,0.9,2.1,1.4,3.4,1.4
	c1.3,0.1,2.5-0.5,3.4-1.4C203.9,81.8,204.4,80.6,204.4,79.3L204.4,79.3z"/>
<rect x="17" y="48" class="st3" width="200" height="55"/>
</svg>
